<svg width="18" height="22" viewBox="0 0 18 22" fill="none" xmlns="http://www.w3.org/2000/svg">
<path d="M3.2417 17.6694C3.1613 17.589 3.1084 17.4959 3.08301 17.3901C3.05762 17.2843 3.05762 17.1764 3.08301 17.0664C3.11263 16.9606 3.16553 16.8696 3.2417 16.7935L8.60547 11.4297L3.2417 6.06592C3.16553 5.98975 3.11263 5.89876 3.08301 5.79297C3.05762 5.68717 3.05762 5.58138 3.08301 5.47559C3.11263 5.36556 3.16553 5.27035 3.2417 5.18994C3.3221 5.10954 3.4152 5.05664 3.521 5.03125C3.63102 5.00163 3.73893 5.00163 3.84473 5.03125C3.95052 5.05664 4.04362 5.10954 4.12402 5.18994L9.48145 10.5537L14.8452 5.18994C14.9256 5.10954 15.0187 5.05664 15.1245 5.03125C15.2303 5.00586 15.3361 5.00586 15.4419 5.03125C15.5477 5.05664 15.6408 5.10954 15.7212 5.18994C15.8016 5.27035 15.8545 5.36344 15.8799 5.46924C15.9095 5.57503 15.9095 5.68294 15.8799 5.79297C15.8545 5.89876 15.8016 5.98975 15.7212 6.06592L10.3638 11.4297L15.7212 16.7935C15.8016 16.8696 15.8545 16.9606 15.8799 17.0664C15.9053 17.1722 15.9053 17.278 15.8799 17.3838C15.8545 17.4938 15.8016 17.589 15.7212 17.6694C15.6408 17.7498 15.5477 17.8027 15.4419 17.8281C15.3361 17.8535 15.2303 17.8535 15.1245 17.8281C15.0187 17.8027 14.9256 17.7498 14.8452 17.6694L9.48145 12.3057L4.12402 17.6694C4.04362 17.7498 3.95052 17.8027 3.84473 17.8281C3.73893 17.8535 3.63314 17.8535 3.52734 17.8281C3.42155 17.8027 3.32633 17.7498 3.2417 17.6694Z" fill="black"/>
</svg>
