<svg width="24" height="24" viewBox="0 0 24 24" fill="none" xmlns="http://www.w3.org/2000/svg">
<path d="M12.0165 2C7.88293 2 4.53561 5.04729 4.53561 8.8104V10.9578C4.53561 11.6532 4.22109 12.6962 3.82795 13.2893L2.40141 15.4572C1.52526 16.7968 2.13182 18.2897 3.74932 18.7806C9.11852 20.4065 14.9258 20.4065 20.295 18.7806C21.8114 18.3204 22.4629 16.7047 21.6429 15.4572L20.2164 13.2893C19.8232 12.6962 19.5087 11.6429 19.5087 10.9578V8.8104C19.4975 5.06775 16.1277 2 12.0165 2Z" stroke="#C0C0C0" stroke-width="1.5" stroke-miterlimit="10" stroke-linecap="round"/>
<path d="M16 19C16 21.1982 14.1982 23 12 23C10.9069 23 9.8979 22.5435 9.17718 21.8228C8.45646 21.1021 8 20.0931 8 19" stroke="#C0C0C0" stroke-width="1.5" stroke-miterlimit="10"/>
</svg>
