<svg width="146" height="165" viewBox="0 0 146 165" fill="none" xmlns="http://www.w3.org/2000/svg">
<path fill-rule="evenodd" clip-rule="evenodd" d="M96.4326 32.1466C98.8257 30.5512 99.6234 28.9558 100.421 27.3604C101.219 23.3718 98.8257 20.181 94.8371 20.181C94.0394 20.181 92.444 20.181 90.8486 20.9787C86.86 23.3718 82.0738 26.5627 78.0852 28.9558C78.0852 23.3718 78.883 14.597 78.883 9.01308C78.883 1.8337 75.6921 0.238281 72.5013 0.238281C69.3104 0.238281 66.1196 1.8337 66.1196 8.21537C66.1196 14.597 66.1196 16.9902 66.1196 28.9558C58.9402 24.1696 57.3448 23.3718 53.3563 20.9787C50.9631 20.181 49.3677 19.3833 47.7723 20.181C44.5815 20.9787 42.986 24.9673 44.5815 28.9558C45.3792 29.7535 46.1769 30.5512 46.9746 31.3489C58.1425 37.7306 63.7265 41.7192 72.5013 47.3031C82.8715 40.9214 89.2532 36.1352 96.4326 32.1466Z" fill="#FEFEFE"/>
<path fill-rule="evenodd" clip-rule="evenodd" d="M40.593 36.9331C40.593 33.7423 40.593 32.1469 38.9976 31.3492C36.6045 28.1583 31.8182 28.956 30.2228 32.1469C29.4251 32.9446 28.6274 34.54 28.6274 36.1354C28.6274 40.124 29.4251 46.5056 29.4251 50.4942C24.6389 47.3033 17.4595 43.3148 11.8755 40.124C6.29155 36.9331 3.10071 38.5285 1.50529 41.7194C-0.0901271 44.1125 -0.0901271 48.101 5.49384 51.2919C11.0778 54.4827 13.4709 55.2804 23.0434 61.6621C15.8641 64.8529 14.2686 65.6507 10.2801 68.8415C7.88697 69.6392 7.08926 71.2346 6.29155 72.83C6.29155 76.0209 8.68468 79.2117 12.6732 80.0094C13.4709 80.0094 14.2686 79.2117 15.8641 79.2117C27.032 72.83 32.616 69.6392 42.1885 64.8529C42.1885 52.8873 41.3908 44.9102 40.593 36.9331Z" fill="#FEFEFE"/>
<path fill-rule="evenodd" clip-rule="evenodd" d="M17.4596 87.1882C15.0665 86.3905 13.4711 85.5928 11.8757 85.5928C7.88711 87.1882 6.29169 91.1767 7.88711 94.3676C8.68482 95.1653 9.48253 96.7607 11.0779 97.5584C14.2688 99.1538 19.8527 101.547 23.8413 103.94C19.055 107.131 11.0779 111.119 6.29169 114.31C0.707725 117.501 0.707725 120.692 2.30314 123.883C3.89856 126.276 7.0894 128.669 12.6734 124.681C17.4596 122.287 19.8527 120.692 30.223 115.108C29.4253 123.085 29.4253 124.681 29.4253 129.467C29.4253 131.86 30.223 133.455 31.8184 135.051C34.2115 136.646 38.2001 136.646 40.5932 133.455C41.3909 132.658 41.3909 131.86 41.3909 130.264C42.1886 117.501 42.1886 110.322 42.1886 99.9515C31.8184 94.3676 24.639 90.379 17.4596 87.1882Z" fill="#FEFEFE"/>
<path fill-rule="evenodd" clip-rule="evenodd" d="M49.3677 132.658C46.9746 134.254 46.1769 135.052 45.3792 136.647C44.5815 140.636 46.9746 143.826 50.9631 144.624C51.7608 144.624 53.3563 144.624 54.9517 143.826C58.9402 141.433 63.7265 137.445 66.9173 135.849C66.9173 141.433 66.9173 150.208 66.9173 155.792C66.9173 162.174 70.1081 163.769 73.299 164.567C76.4898 164.567 79.6807 162.174 79.6807 155.792C79.6807 150.208 79.6807 147.017 79.6807 135.849C86.86 139.838 88.4555 140.636 92.444 143.826C94.0394 144.624 96.4326 144.624 98.028 143.826C100.421 143.029 102.814 139.04 101.219 135.849C100.421 135.052 99.6234 134.254 98.8257 133.456C87.6578 126.277 82.0738 123.086 72.5013 117.502C62.9288 123.884 56.5471 127.872 49.3677 132.658Z" fill="#FEFEFE"/>
<path fill-rule="evenodd" clip-rule="evenodd" d="M105.208 127.074C105.208 130.265 105.208 131.86 106.803 133.456C109.994 135.849 113.983 135.051 115.578 132.658C116.376 131.86 117.173 130.265 117.173 128.669C117.173 123.883 116.376 118.299 116.376 113.513C121.162 116.704 128.341 120.692 133.925 123.883C139.509 127.074 142.7 125.479 144.295 123.085C145.891 119.895 145.891 116.704 140.307 113.513C134.723 110.322 132.33 108.727 122.757 103.143C129.937 99.1542 131.532 98.3565 135.521 95.9633C137.914 95.1656 138.712 92.7725 139.509 91.1771C139.509 88.784 137.116 84.7954 133.128 84.7954C132.33 84.7954 131.532 84.7954 129.937 85.5931C118.769 91.1771 113.185 94.3679 103.612 99.9519C103.612 111.918 104.41 119.097 105.208 127.074Z" fill="#FEFEFE"/>
<path fill-rule="evenodd" clip-rule="evenodd" d="M128.341 76.8186C130.734 78.414 132.33 79.2117 133.925 78.414C137.914 77.6163 139.509 73.6278 137.914 70.4369C137.116 68.8415 136.318 68.0438 134.723 67.2461C130.734 64.853 125.948 62.4599 121.959 60.0667C126.746 57.6736 133.925 52.8873 139.509 50.4942C145.093 47.3034 145.093 43.3148 143.498 40.9217C141.902 37.7309 138.711 36.1354 133.127 39.3263C128.341 42.5171 125.948 44.1125 115.578 49.6965C116.376 41.7194 116.376 39.3263 116.376 34.54C116.376 32.1469 115.578 30.5515 113.982 29.7538C111.589 27.3606 106.803 28.1584 105.208 31.3492C104.41 31.3492 104.41 32.9446 104.41 33.7423C103.612 47.3034 103.612 53.6851 102.814 64.853C113.982 70.4369 120.364 73.6278 128.341 76.8186Z" fill="#FEFEFE"/>
<path fill-rule="evenodd" clip-rule="evenodd" d="M72.5016 54.4829L85.2649 61.6623L97.2306 68.044V82.4027V95.9638L85.2649 103.143L72.5016 109.525L60.5359 103.143L48.5703 95.9638V82.4027V68.044L60.5359 61.6623L72.5016 54.4829Z" fill="#FEFEFE"/>
</svg>
