<svg width="20" height="20" viewBox="0 0 20 20" fill="none" xmlns="http://www.w3.org/2000/svg">
<path d="M17.6221 6.818C17.5061 6.908 15.4581 8.062 15.4581 10.628C15.4581 13.596 18.0641 14.646 18.1421 14.672C18.1301 14.736 17.7281 16.11 16.7681 17.51C15.9121 18.742 15.0181 19.972 13.6581 19.972C12.2981 19.972 11.9481 19.182 10.3781 19.182C8.84811 19.182 8.30411 19.998 7.06011 19.998C5.81611 19.998 4.94811 18.858 3.95011 17.458C2.79411 15.814 1.86011 13.26 1.86011 10.836C1.86011 6.948 4.38811 4.886 6.87611 4.886C8.19811 4.886 9.30011 5.754 10.1301 5.754C10.9201 5.754 12.1521 4.834 13.6561 4.834C14.2261 4.834 16.2741 4.886 17.6221 6.818ZM12.9421 3.188C13.5641 2.45 14.0041 1.426 14.0041 0.402C14.0041 0.26 13.9921 0.116 13.9661 0C12.9541 0.038 11.7501 0.674 11.0241 1.516C10.4541 2.164 9.92211 3.188 9.92211 4.226C9.92211 4.382 9.94811 4.538 9.96011 4.588C10.0241 4.6 10.1281 4.614 10.2321 4.614C11.1401 4.614 12.2821 4.006 12.9421 3.188Z" fill="#8C8C8C"/>
</svg>
