<svg width="24" height="24" viewBox="0 0 24 24" fill="none" xmlns="http://www.w3.org/2000/svg">
<g clip-path="url(#clip0_3411_2089)">
<path d="M22.9999 17.6645C22.9999 18.6545 22.725 19.5894 22.23 20.3813C21.317 21.9103 19.6451 22.9442 17.7202 22.9442C15.7953 22.9442 14.1123 21.9103 13.2104 20.3813C12.7264 19.5894 12.4404 18.6545 12.4404 17.6645C12.4404 14.7496 14.8053 12.3848 17.7202 12.3848C20.635 12.3848 22.9999 14.7496 22.9999 17.6645Z" stroke="#C0C0C0" stroke-width="1.5" stroke-miterlimit="10" stroke-linecap="round" stroke-linejoin="round"/>
<path d="M15.6631 17.6651L16.961 18.9631L19.7769 16.3672" stroke="#C0C0C0" stroke-width="1.5" stroke-linecap="round" stroke-linejoin="round"/>
<path d="M22.999 8.30402C22.999 10.4709 22.438 12.3848 21.558 14.0457C20.5901 13.0228 19.2261 12.3848 17.7192 12.3848C14.8044 12.3848 12.4395 14.7497 12.4395 17.6646C12.4395 19.0175 12.9564 20.2495 13.7924 21.1844C13.3854 21.3714 13.0114 21.5254 12.6815 21.6354C12.3075 21.7674 11.6915 21.7674 11.3175 21.6354C8.12767 20.5464 1 16.0037 1 8.30402C1 4.90517 3.73887 2.15527 7.11572 2.15527C9.10662 2.15527 10.8885 3.12327 11.9995 4.6082C13.1104 3.12327 14.8923 2.15527 16.8833 2.15527C20.2601 2.15527 22.999 4.90517 22.999 8.30402Z" stroke="#C0C0C0" stroke-width="1.5" stroke-linecap="round" stroke-linejoin="round"/>
</g>
<defs>
<clipPath id="clip0_3411_2089">
<rect width="24" height="24" fill="white"/>
</clipPath>
</defs>
</svg>
