<svg width="18" height="19" viewBox="0 0 18 19" fill="none" xmlns="http://www.w3.org/2000/svg">
<path d="M3.07227 18.9531C2.05013 18.9531 1.2819 18.6992 0.767578 18.1914C0.259766 17.6901 0.00585938 16.9349 0.00585938 15.9258V4.00195C0.00585938 2.99284 0.259766 2.23763 0.767578 1.73633C1.2819 1.22852 2.05013 0.974609 3.07227 0.974609H14.918C15.9401 0.974609 16.7051 1.22852 17.2129 1.73633C17.7272 2.23763 17.9844 2.99284 17.9844 4.00195V15.9258C17.9844 16.9349 17.7272 17.6901 17.2129 18.1914C16.7051 18.6992 15.9401 18.9531 14.918 18.9531H3.07227ZM7.90625 14.7148C8.07552 14.7148 8.22852 14.6758 8.36523 14.5977C8.50195 14.5195 8.6224 14.4023 8.72656 14.2461L13.3164 7.00977C13.375 6.91211 13.4303 6.80794 13.4824 6.69727C13.5345 6.58659 13.5605 6.47591 13.5605 6.36523C13.5605 6.13737 13.4759 5.95833 13.3066 5.82812C13.1374 5.69141 12.9486 5.62305 12.7402 5.62305C12.4538 5.62305 12.2194 5.77279 12.0371 6.07227L7.86719 12.7715L5.88477 10.2129C5.76107 10.0501 5.64062 9.93945 5.52344 9.88086C5.41276 9.82227 5.28581 9.79297 5.14258 9.79297C4.92122 9.79297 4.73568 9.87435 4.58594 10.0371C4.4362 10.1934 4.36133 10.3822 4.36133 10.6035C4.36133 10.7142 4.38086 10.8249 4.41992 10.9355C4.46549 11.0397 4.52409 11.1406 4.5957 11.2383L7.04688 14.2461C7.17708 14.4154 7.31055 14.5358 7.44727 14.6074C7.58398 14.679 7.73698 14.7148 7.90625 14.7148Z" fill="black" fill-opacity="0.4"/>
</svg>
